<?xml version="1.0" encoding="UTF-8" standalone="no"?>
<!-- Created with Inkscape (http://www.inkscape.org/) -->

<svg
   xmlns:dc="http://purl.org/dc/elements/1.1/"
   xmlns:cc="http://creativecommons.org/ns#"
   xmlns:rdf="http://www.w3.org/1999/02/22-rdf-syntax-ns#"
   xmlns:svg="http://www.w3.org/2000/svg"
   xmlns="http://www.w3.org/2000/svg"
   xmlns:sodipodi="http://sodipodi.sourceforge.net/DTD/sodipodi-0.dtd"
   xmlns:inkscape="http://www.inkscape.org/namespaces/inkscape"
   id="svg2"
   version="1.1"
   inkscape:version="0.91 r13725"
   xml:space="preserve"
   width="909.97375"
   height="284.35999"
   viewBox="0 0 909.97144 284.35999"
   sodipodi:docname="SGDF_logo_RVB_horizontal.svg"><metadata
     id="metadata8"><rdf:RDF><cc:Work
         rdf:about=""><dc:format>image/svg+xml</dc:format><dc:type
           rdf:resource="http://purl.org/dc/dcmitype/StillImage" /><dc:title></dc:title></cc:Work></rdf:RDF></metadata><defs
     id="defs6"><clipPath
       clipPathUnits="userSpaceOnUse"
       id="clipPath16"><path
         d="m 0,457.088 886.379,0 L 886.379,0 0,0 0,457.088 Z"
         id="path18"
         inkscape:connector-curvature="0" /></clipPath></defs><sodipodi:namedview
     pagecolor="#ffffff"
     bordercolor="#666666"
     borderopacity="1"
     objecttolerance="10"
     gridtolerance="10"
     guidetolerance="10"
     inkscape:pageopacity="0"
     inkscape:pageshadow="2"
     inkscape:window-width="1546"
     inkscape:window-height="798"
     id="namedview4"
     showgrid="false"
     inkscape:zoom="0.59"
     inkscape:cx="72.545902"
     inkscape:cy="240.22544"
     inkscape:window-x="0"
     inkscape:window-y="0"
     inkscape:window-maximized="0"
     inkscape:current-layer="g10" /><g
     id="g10"
     inkscape:groupmode="layer"
     inkscape:label="SGDF_logo_RVB_horizontal"
     transform="matrix(1.25,0,0,-1.25,0,284.36001)"><g
       id="g12"
       transform="translate(-79.17534,-116.07345)"><g
         id="g14"
         clip-path="url(#clipPath16)"><g
           id="g20"
           transform="translate(347.7193,157.1036)"><path
             d="M 0,0 C -7.918,7.978 -14.094,14.598 -24.012,25.232 -26.99,28.425 -35.55,37.583 -35.55,37.583 l -1.584,-1.502 C -37.439,35.79 -63.925,8.174 -73.74,-0.928 c -2.854,3.118 -9.276,10.163 -13.898,15.47 8.527,7.912 41.15,40.765 54.498,53.142 C -28.055,62.068 -11.252,43.53 -5.505,37.472 2.351,29.187 12.842,16.758 16.649,12.208 9.896,7.149 2.837,1.95 0,0 m -96.753,43.84 c -4.452,3.618 -10.842,10.451 -13.74,13.219 L -96.628,71.937 -83.34,57.951 C -87.274,53.526 -93.915,46.473 -96.753,43.84 m -24.568,-44.768 -38.044,35.324 -31.004,-34.202 -15.732,13.194 46.926,53.703 53.953,-53.302 -16.099,-14.717 z m 13.88,134.115 10.751,10.622 21.908,-23.764 23.354,-29.831 -13.008,-12.569 -0.599,0.501 -31.743,34.208 -1.576,-1.912 c -0.943,-1.14 -21.987,-26.655 -28.582,-35.3 -3.051,2.217 -9.805,7.337 -16.687,13.937 l 36.182,44.108 z M -265.687,-39 l 341.921,0 0,220.881 -341.921,0 0,-220.881 z"
             style="fill:#003a5d;fill-opacity:1;fill-rule:nonzero;stroke:none"
             id="path22"
             inkscape:connector-curvature="0" /></g><g
           id="g24"
           transform="translate(460.0079,289.3438)"><path
             d="m 0,0 12.597,7.304 c 2.282,-5.295 6.208,-8.856 13.42,-8.856 6.936,0 8.671,2.739 8.671,5.203 0,3.926 -3.652,5.478 -13.236,8.125 -9.494,2.648 -18.805,7.211 -18.805,19.444 0,12.323 10.407,19.443 21.453,19.443 10.497,0 18.713,-5.02 23.368,-14.423 L 35.145,29.029 c -2.192,4.564 -5.204,7.394 -11.045,7.394 -4.565,0 -6.847,-2.282 -6.847,-4.838 0,-2.922 1.552,-4.93 11.501,-7.942 C 38.432,20.721 49.293,17.345 49.293,3.834 49.293,-8.49 39.435,-15.792 25.56,-15.792 12.142,-15.792 3.561,-9.402 0,0"
             style="fill:#003a5d;fill-opacity:1;fill-rule:nonzero;stroke:none"
             id="path26"
             inkscape:connector-curvature="0" /></g><g
           id="g28"
           transform="translate(513.3985,306.7804)"><path
             d="m 0,0 c 0,18.804 13.967,33.227 33.227,33.227 11.592,0 21.817,-5.751 27.385,-14.789 L 48.016,11.136 c -2.831,4.929 -8.308,7.85 -14.789,7.85 -11.319,0 -18.622,-7.577 -18.622,-18.986 0,-11.411 7.303,-18.988 18.622,-18.988 6.481,0 12.049,2.921 14.789,7.85 L 60.612,-18.44 C 55.136,-27.478 44.911,-33.229 33.227,-33.229 13.967,-33.229 0,-18.807 0,0"
             style="fill:#003a5d;fill-opacity:1;fill-rule:nonzero;stroke:none"
             id="path30"
             inkscape:connector-curvature="0" /></g><g
           id="g32"
           transform="translate(629.044,306.7804)"><path
             d="m 0,0 c 0,11.409 -8.216,18.986 -18.623,18.986 -10.406,0 -18.621,-7.577 -18.621,-18.986 0,-11.411 8.215,-18.988 18.621,-18.988 C -8.216,-18.988 0,-11.411 0,0 m -51.85,0 c 0,18.804 14.88,33.227 33.227,33.227 18.35,0 33.228,-14.423 33.228,-33.227 0,-18.807 -14.878,-33.229 -33.228,-33.229 -18.347,0 -33.227,14.422 -33.227,33.229"
             style="fill:#003a5d;fill-opacity:1;fill-rule:nonzero;stroke:none"
             id="path34"
             inkscape:connector-curvature="0" /></g><g
           id="g36"
           transform="translate(650.9376,295.4591)"><path
             d="m 0,0 0,43.27 14.605,0 0,-41.991 c 0,-4.839 2.281,-8.946 10.041,-8.946 7.759,0 10.042,4.107 10.042,8.946 l 0,41.991 14.605,0 0,-43.27 c 0,-13.691 -10.59,-21.907 -24.647,-21.907 C 10.589,-21.907 0,-13.691 0,0"
             style="fill:#003a5d;fill-opacity:1;fill-rule:nonzero;stroke:none"
             id="path38"
             inkscape:connector-curvature="0" /></g><g
           id="g40"
           transform="translate(753.6202,324.67)"><path
             d="m 0,0 -16.431,0 0,-49.84 -14.605,0 0,49.84 -16.432,0 0,14.059 L 0,14.059 0,0 Z"
             style="fill:#003a5d;fill-opacity:1;fill-rule:nonzero;stroke:none"
             id="path42"
             inkscape:connector-curvature="0" /></g><g
           id="g44"
           transform="translate(754.9805,289.3438)"><path
             d="m 0,0 12.597,7.304 c 2.282,-5.295 6.207,-8.856 13.419,-8.856 6.936,0 8.672,2.739 8.672,5.203 0,3.926 -3.652,5.478 -13.237,8.125 -9.493,2.648 -18.804,7.211 -18.804,19.444 0,12.323 10.407,19.443 21.452,19.443 10.497,0 18.713,-5.02 23.369,-14.423 L 35.145,29.029 c -2.193,4.564 -5.204,7.394 -11.046,7.394 -4.564,0 -6.846,-2.282 -6.846,-4.838 0,-2.922 1.551,-4.93 11.501,-7.942 9.677,-2.922 20.539,-6.298 20.539,-19.809 0,-12.324 -9.859,-19.626 -23.734,-19.626 C 12.141,-15.792 3.56,-9.402 0,0"
             style="fill:#003a5d;fill-opacity:1;fill-rule:nonzero;stroke:none"
             id="path46"
             inkscape:connector-curvature="0" /></g><g
           id="g48"
           transform="translate(526.4581,213.9835)"><path
             d="m 0,0 c 0,-19.526 -13.596,-31.389 -31.479,-31.389 -20.073,0 -34.489,14.782 -34.489,33.122 0,18.522 14.69,33.303 33.486,33.303 12.226,0 22.537,-6.022 27.919,-14.598 L -16.972,13.32 c -2.645,4.199 -8.393,7.482 -15.602,7.482 -10.766,0 -18.795,-7.937 -18.795,-19.16 0,-10.86 7.663,-18.796 20.073,-18.796 8.485,0 14.051,3.742 16.332,9.853 l -17.062,0 0,12.774 L 0,5.473 0,0 Z"
             style="fill:#003a5d;fill-opacity:1;fill-rule:nonzero;stroke:none"
             id="path50"
             inkscape:connector-curvature="0" /></g><g
           id="g52"
           transform="translate(538.9737,204.4942)"><path
             d="m 0,0 0,43.248 14.599,0 0,-41.971 c 0,-4.836 2.281,-8.942 10.036,-8.942 7.756,0 10.037,4.106 10.037,8.942 l 0,41.971 14.599,0 0,-43.248 c 0,-13.688 -10.585,-21.899 -24.636,-21.899 C 10.585,-21.899 0,-13.688 0,0"
             style="fill:#003a5d;fill-opacity:1;fill-rule:nonzero;stroke:none"
             id="path54"
             inkscape:connector-curvature="0" /></g><path
           d="m 618.548,183.872 -14.599,0 0,63.87 14.599,0 0,-63.87 z"
           style="fill:#003a5d;fill-opacity:1;fill-rule:nonzero;stroke:none"
           id="path56"
           inkscape:connector-curvature="0" /><g
           id="g58"
           transform="translate(677.2227,215.8087)"><path
             d="m 0,0 c 0,10.948 -6.936,17.882 -16.971,17.882 l -10.95,0 0,-35.767 10.95,0 C -6.936,-17.885 0,-10.951 0,0 m 14.051,0 c 0,-18.065 -13.413,-31.937 -31.022,-31.937 l -25.549,0 0,63.871 25.549,0 C 0.638,31.934 14.051,18.065 14.051,0"
             style="fill:#003a5d;fill-opacity:1;fill-rule:nonzero;stroke:none"
             id="path60"
             inkscape:connector-curvature="0" /></g><g
           id="g62"
           transform="translate(744.8467,197.9239)"><path
             d="m 0,0 0,-14.052 -40.146,0 0,63.87 39.689,0 0,-14.051 -25.091,0 0,-10.584 22.811,0 0,-13.869 -22.811,0 L -25.548,0 0,0 Z"
             style="fill:#003a5d;fill-opacity:1;fill-rule:nonzero;stroke:none"
             id="path64"
             inkscape:connector-curvature="0" /></g><g
           id="g66"
           transform="translate(755.0772,198.379)"><path
             d="m 0,0 12.591,7.301 c 2.281,-5.292 6.205,-8.851 13.412,-8.851 6.935,0 8.668,2.737 8.668,5.2 0,3.923 -3.65,5.476 -13.23,8.121 -9.489,2.647 -18.795,7.208 -18.795,19.435 0,12.317 10.402,19.435 21.442,19.435 10.492,0 18.704,-5.02 23.357,-14.418 L 35.128,29.017 c -2.19,4.561 -5.201,7.389 -11.04,7.389 -4.563,0 -6.844,-2.28 -6.844,-4.836 0,-2.92 1.552,-4.925 11.497,-7.937 C 38.413,20.714 49.27,17.338 49.27,3.834 49.27,-8.483 39.416,-15.784 25.548,-15.784 12.136,-15.784 3.559,-9.395 0,0"
             style="fill:#003a5d;fill-opacity:1;fill-rule:nonzero;stroke:none"
             id="path68"
             inkscape:connector-curvature="0" /></g><g
           id="g70"
           transform="translate(490.8575,137.4122)"><path
             d="m 0,0 c 0,8.287 -5.546,14.674 -13.611,14.674 l -10.079,0 0,-29.348 10.079,0 C -5.546,-14.674 0,-8.29 0,0 m 4.985,0 c 0,-10.867 -7.787,-19.604 -18.596,-19.604 l -15.29,0 0,39.205 15.29,0 C -2.802,19.601 4.985,10.864 4.985,0"
             style="fill:#003a5d;fill-opacity:1;fill-rule:nonzero;stroke:none"
             id="path72"
             inkscape:connector-curvature="0" /></g><g
           id="g74"
           transform="translate(525.5899,122.7384)"><path
             d="m 0,0 0,-4.931 -23.41,0 0,39.205 23.133,0 0,-4.926 -17.923,0 0,-12.044 16.521,0 0,-4.872 -16.521,0 L -18.2,0 0,0 Z"
             style="fill:#003a5d;fill-opacity:1;fill-rule:nonzero;stroke:none"
             id="path76"
             inkscape:connector-curvature="0" /></g><g
           id="g78"
           transform="translate(551.087,152.086)"><path
             d="m 0,0 0,-12.716 16.636,0 0,-4.927 -16.636,0 0,-16.635 -5.208,0 0,39.205 22.573,0 L 17.365,0 0,0 Z"
             style="fill:#003a5d;fill-opacity:1;fill-rule:nonzero;stroke:none"
             id="path80"
             inkscape:connector-curvature="0" /></g><g
           id="g82"
           transform="translate(579.9962,137.5226)"><path
             d="m 0,0 10.474,0 c 3.864,0 7,3.305 7,7.339 0,4.031 -3.136,7.28 -7,7.28 L 0,14.619 0,0 Z m 9.239,-4.705 -9.239,0 0,-15.01 -5.21,0 0,39.205 15.684,0 c 6.719,0 12.207,-5.431 12.207,-12.151 0,-5.155 -3.415,-9.692 -8.12,-11.37 l 9.241,-15.684 -5.768,0 -8.795,15.01 z"
             style="fill:#003a5d;fill-opacity:1;fill-rule:nonzero;stroke:none"
             id="path84"
             inkscape:connector-curvature="0" /></g><g
           id="g86"
           transform="translate(629.8526,131.4747)"><path
             d="M 0,0 -7.059,19.321 -14.059,0 0,0 Z m 1.792,-4.875 -17.643,0 -3.193,-8.792 -5.543,0 14.615,39.205 5.882,0 14.618,-39.205 -5.546,0 -3.19,8.792 z"
             style="fill:#003a5d;fill-opacity:1;fill-rule:nonzero;stroke:none"
             id="path88"
             inkscape:connector-curvature="0" /></g><g
           id="g90"
           transform="translate(674.6124,157.0128)"><path
             d="m 0,0 0,-39.205 -4.201,0 -20.161,29.292 0,-29.292 -5.211,0 0,39.205 4.201,0 L -5.208,-29.236 -5.208,0 0,0 Z"
             style="fill:#003a5d;fill-opacity:1;fill-rule:nonzero;stroke:none"
             id="path92"
             inkscape:connector-curvature="0" /></g><g
           id="g94"
           transform="translate(680.9483,137.4122)"><path
             d="m 0,0 c 0,11.311 8.515,20.331 20.5,20.331 7.225,0 13.609,-3.754 16.913,-9.522 L 32.877,8.176 c -2.239,4.311 -7,7.113 -12.377,7.113 C 11.314,15.289 5.152,8.625 5.152,0 c 0,-8.57 6.162,-15.234 15.348,-15.234 5.377,0 10.138,2.798 12.377,7.054 l 4.536,-2.574 C 34.167,-16.524 27.78,-20.331 20.5,-20.331 8.515,-20.331 0,-11.259 0,0"
             style="fill:#003a5d;fill-opacity:1;fill-rule:nonzero;stroke:none"
             id="path96"
             inkscape:connector-curvature="0" /></g><g
           id="g98"
           transform="translate(747.6651,122.7384)"><path
             d="m 0,0 0,-4.931 -23.411,0 0,39.205 23.134,0 0,-4.926 -17.923,0 0,-12.044 16.521,0 0,-4.872 -16.521,0 L -18.2,0 0,0 Z"
             style="fill:#003a5d;fill-opacity:1;fill-rule:nonzero;stroke:none"
             id="path100"
             inkscape:connector-curvature="0" /></g><g
           id="g102"
           transform="translate(772.6378,122.2638)"><path
             d="m 0,0 0,-4.413 23.313,0 0,4.413 -9.451,0 0,12.934 12.985,0 0,-9.398 4.413,0 0,23.314 -4.413,0 0,-9.503 -12.985,0 0,13.036 9.451,0 0,4.413 -23.313,0 0,-4.413 9.449,0 0,-13.036 -12.985,0 0,9.503 -4.413,0 0,-23.314 4.413,0 0,9.398 12.985,0 L 9.449,0 0,0 Z"
             style="fill:#003a5d;fill-opacity:1;fill-rule:nonzero;stroke:none"
             id="path104"
             inkscape:connector-curvature="0" /></g></g></g></g></svg>